name C:\Users\u0101727\Documents\MyRepositories\upper-imu-dc\OpenSim\subject0\MA\ResultsMA\grid_4nodes_9dim\angles_25.mot
datacolumns 10
datarows 56
range 2525.01000000 2525.56000000
endheader 
time	clav_prot	clav_elev	scapula_abduction	scapula_elevation	scapula_upward_rot	scapula_winging	plane_elv	shoulder_elv	axial_rot	
       2525.01000000	        -50.00000000	          0.00000000	        -21.66666667	         -3.33333333	         60.00000000	          0.00000000	        -30.00000000	        100.00000000	         90.00000000	
       2525.02000000	        -38.33333333	          0.00000000	        -21.66666667	         -3.33333333	         60.00000000	          0.00000000	        -30.00000000	        100.00000000	         90.00000000	
       2525.03000000	        -26.66666667	          0.00000000	        -21.66666667	         -3.33333333	         60.00000000	          0.00000000	        -30.00000000	        100.00000000	         90.00000000	
       2525.04000000	        -15.00000000	          0.00000000	        -21.66666667	         -3.33333333	         60.00000000	          0.00000000	        -30.00000000	        100.00000000	         90.00000000	
       2525.05000000	        -50.00000000	         10.00000000	        -21.66666667	         -3.33333333	         60.00000000	          0.00000000	        -30.00000000	        100.00000000	         90.00000000	
       2525.06000000	        -38.33333333	         10.00000000	        -21.66666667	         -3.33333333	         60.00000000	          0.00000000	        -30.00000000	        100.00000000	         90.00000000	
       2525.07000000	        -26.66666667	         10.00000000	        -21.66666667	         -3.33333333	         60.00000000	          0.00000000	        -30.00000000	        100.00000000	         90.00000000	
       2525.08000000	        -15.00000000	         10.00000000	        -21.66666667	         -3.33333333	         60.00000000	          0.00000000	        -30.00000000	        100.00000000	         90.00000000	
       2525.09000000	        -50.00000000	         20.00000000	        -21.66666667	         -3.33333333	         60.00000000	          0.00000000	        -30.00000000	        100.00000000	         90.00000000	
       2525.10000000	        -38.33333333	         20.00000000	        -21.66666667	         -3.33333333	         60.00000000	          0.00000000	        -30.00000000	        100.00000000	         90.00000000	
       2525.11000000	        -26.66666667	         20.00000000	        -21.66666667	         -3.33333333	         60.00000000	          0.00000000	        -30.00000000	        100.00000000	         90.00000000	
       2525.12000000	        -15.00000000	         20.00000000	        -21.66666667	         -3.33333333	         60.00000000	          0.00000000	        -30.00000000	        100.00000000	         90.00000000	
       2525.13000000	        -50.00000000	        -10.00000000	         -3.33333333	         -3.33333333	         60.00000000	          0.00000000	        -30.00000000	        100.00000000	         90.00000000	
       2525.14000000	        -38.33333333	        -10.00000000	         -3.33333333	         -3.33333333	         60.00000000	          0.00000000	        -30.00000000	        100.00000000	         90.00000000	
       2525.15000000	        -26.66666667	        -10.00000000	         -3.33333333	         -3.33333333	         60.00000000	          0.00000000	        -30.00000000	        100.00000000	         90.00000000	
       2525.16000000	        -15.00000000	        -10.00000000	         -3.33333333	         -3.33333333	         60.00000000	          0.00000000	        -30.00000000	        100.00000000	         90.00000000	
       2525.17000000	        -50.00000000	          0.00000000	         -3.33333333	         -3.33333333	         60.00000000	          0.00000000	        -30.00000000	        100.00000000	         90.00000000	
       2525.18000000	        -38.33333333	          0.00000000	         -3.33333333	         -3.33333333	         60.00000000	          0.00000000	        -30.00000000	        100.00000000	         90.00000000	
       2525.19000000	        -26.66666667	          0.00000000	         -3.33333333	         -3.33333333	         60.00000000	          0.00000000	        -30.00000000	        100.00000000	         90.00000000	
       2525.20000000	        -15.00000000	          0.00000000	         -3.33333333	         -3.33333333	         60.00000000	          0.00000000	        -30.00000000	        100.00000000	         90.00000000	
       2525.21000000	        -50.00000000	         10.00000000	         -3.33333333	         -3.33333333	         60.00000000	          0.00000000	        -30.00000000	        100.00000000	         90.00000000	
       2525.22000000	        -38.33333333	         10.00000000	         -3.33333333	         -3.33333333	         60.00000000	          0.00000000	        -30.00000000	        100.00000000	         90.00000000	
       2525.23000000	        -26.66666667	         10.00000000	         -3.33333333	         -3.33333333	         60.00000000	          0.00000000	        -30.00000000	        100.00000000	         90.00000000	
       2525.24000000	        -15.00000000	         10.00000000	         -3.33333333	         -3.33333333	         60.00000000	          0.00000000	        -30.00000000	        100.00000000	         90.00000000	
       2525.25000000	        -50.00000000	         20.00000000	         -3.33333333	         -3.33333333	         60.00000000	          0.00000000	        -30.00000000	        100.00000000	         90.00000000	
       2525.26000000	        -38.33333333	         20.00000000	         -3.33333333	         -3.33333333	         60.00000000	          0.00000000	        -30.00000000	        100.00000000	         90.00000000	
       2525.27000000	        -26.66666667	         20.00000000	         -3.33333333	         -3.33333333	         60.00000000	          0.00000000	        -30.00000000	        100.00000000	         90.00000000	
       2525.28000000	        -15.00000000	         20.00000000	         -3.33333333	         -3.33333333	         60.00000000	          0.00000000	        -30.00000000	        100.00000000	         90.00000000	
       2525.29000000	        -50.00000000	        -10.00000000	         15.00000000	         -3.33333333	         60.00000000	          0.00000000	        -30.00000000	        100.00000000	         90.00000000	
       2525.30000000	        -38.33333333	        -10.00000000	         15.00000000	         -3.33333333	         60.00000000	          0.00000000	        -30.00000000	        100.00000000	         90.00000000	
       2525.31000000	        -26.66666667	        -10.00000000	         15.00000000	         -3.33333333	         60.00000000	          0.00000000	        -30.00000000	        100.00000000	         90.00000000	
       2525.32000000	        -15.00000000	        -10.00000000	         15.00000000	         -3.33333333	         60.00000000	          0.00000000	        -30.00000000	        100.00000000	         90.00000000	
       2525.33000000	        -50.00000000	          0.00000000	         15.00000000	         -3.33333333	         60.00000000	          0.00000000	        -30.00000000	        100.00000000	         90.00000000	
       2525.34000000	        -38.33333333	          0.00000000	         15.00000000	         -3.33333333	         60.00000000	          0.00000000	        -30.00000000	        100.00000000	         90.00000000	
       2525.35000000	        -26.66666667	          0.00000000	         15.00000000	         -3.33333333	         60.00000000	          0.00000000	        -30.00000000	        100.00000000	         90.00000000	
       2525.36000000	        -15.00000000	          0.00000000	         15.00000000	         -3.33333333	         60.00000000	          0.00000000	        -30.00000000	        100.00000000	         90.00000000	
       2525.37000000	        -50.00000000	         10.00000000	         15.00000000	         -3.33333333	         60.00000000	          0.00000000	        -30.00000000	        100.00000000	         90.00000000	
       2525.38000000	        -38.33333333	         10.00000000	         15.00000000	         -3.33333333	         60.00000000	          0.00000000	        -30.00000000	        100.00000000	         90.00000000	
       2525.39000000	        -26.66666667	         10.00000000	         15.00000000	         -3.33333333	         60.00000000	          0.00000000	        -30.00000000	        100.00000000	         90.00000000	
       2525.40000000	        -15.00000000	         10.00000000	         15.00000000	         -3.33333333	         60.00000000	          0.00000000	        -30.00000000	        100.00000000	         90.00000000	
       2525.41000000	        -50.00000000	         20.00000000	         15.00000000	         -3.33333333	         60.00000000	          0.00000000	        -30.00000000	        100.00000000	         90.00000000	
       2525.42000000	        -38.33333333	         20.00000000	         15.00000000	         -3.33333333	         60.00000000	          0.00000000	        -30.00000000	        100.00000000	         90.00000000	
       2525.43000000	        -26.66666667	         20.00000000	         15.00000000	         -3.33333333	         60.00000000	          0.00000000	        -30.00000000	        100.00000000	         90.00000000	
       2525.44000000	        -15.00000000	         20.00000000	         15.00000000	         -3.33333333	         60.00000000	          0.00000000	        -30.00000000	        100.00000000	         90.00000000	
       2525.45000000	        -50.00000000	        -10.00000000	        -40.00000000	          3.33333333	         60.00000000	          0.00000000	        -30.00000000	        100.00000000	         90.00000000	
       2525.46000000	        -38.33333333	        -10.00000000	        -40.00000000	          3.33333333	         60.00000000	          0.00000000	        -30.00000000	        100.00000000	         90.00000000	
       2525.47000000	        -26.66666667	        -10.00000000	        -40.00000000	          3.33333333	         60.00000000	          0.00000000	        -30.00000000	        100.00000000	         90.00000000	
       2525.48000000	        -15.00000000	        -10.00000000	        -40.00000000	          3.33333333	         60.00000000	          0.00000000	        -30.00000000	        100.00000000	         90.00000000	
       2525.49000000	        -50.00000000	          0.00000000	        -40.00000000	          3.33333333	         60.00000000	          0.00000000	        -30.00000000	        100.00000000	         90.00000000	
       2525.50000000	        -38.33333333	          0.00000000	        -40.00000000	          3.33333333	         60.00000000	          0.00000000	        -30.00000000	        100.00000000	         90.00000000	
       2525.51000000	        -26.66666667	          0.00000000	        -40.00000000	          3.33333333	         60.00000000	          0.00000000	        -30.00000000	        100.00000000	         90.00000000	
       2525.52000000	        -15.00000000	          0.00000000	        -40.00000000	          3.33333333	         60.00000000	          0.00000000	        -30.00000000	        100.00000000	         90.00000000	
       2525.53000000	        -50.00000000	         10.00000000	        -40.00000000	          3.33333333	         60.00000000	          0.00000000	        -30.00000000	        100.00000000	         90.00000000	
       2525.54000000	        -38.33333333	         10.00000000	        -40.00000000	          3.33333333	         60.00000000	          0.00000000	        -30.00000000	        100.00000000	         90.00000000	
       2525.55000000	        -26.66666667	         10.00000000	        -40.00000000	          3.33333333	         60.00000000	          0.00000000	        -30.00000000	        100.00000000	         90.00000000	
       2525.56000000	        -15.00000000	         10.00000000	        -40.00000000	          3.33333333	         60.00000000	          0.00000000	        -30.00000000	        100.00000000	         90.00000000	
